<svg xmlns="http://www.w3.org/2000/svg" viewBox="0 0 879.77 879.77"><title>phelng-logo</title><g id="b8d114e4-8407-478f-8b68-edfe29c9f3c5" data-name="Calque 2"><g id="66c44e51-73ce-4420-918e-2f0d28185579" data-name="Calque 1"><circle cx="439.89" cy="439.89" r="439.89" fill="none"/><path d="M742.14,439.89c0,166.93-135.32,302.25-302.25,302.25S137.64,606.82,137.64,439.89a300.88,300.88,0,0,1,42.19-154.12L389.56,410.06a58.5,58.5,0,1,0,100.66,0L700,285.77A300.88,300.88,0,0,1,742.14,439.89Z" fill="#0a0a0a"/><polyline points="439.89 438.65 439.89 379.89 439.89 135.04 439.89 0" fill="none" stroke="#0a0a0a" stroke-miterlimit="10" stroke-width="62"/><path d="M498.39,439.89a58.5,58.5,0,1,1-108.83-29.83l50.33,29.83,50.33-29.83A58.18,58.18,0,0,1,498.39,439.89Z" fill="red"/><path d="M439.89,451l28.05,301s75.44-10.24,112.92-33.61C580.24,718.72,439.89,451,439.89,451Z" fill="#f2f2f2" opacity="0.15"/><polyline points="112.89 221 439.89 414.89 766.89 221" fill="none" stroke="#fff" stroke-miterlimit="10" stroke-width="62"/><polyline points="112.89 210 439.89 403.89 766.89 210" fill="none" stroke="#0a0a0a" stroke-miterlimit="10" stroke-width="62"/></g></g></svg>