<svg xmlns="http://www.w3.org/2000/svg" viewBox="0 0 1825.3 1326.23"><title>phelng-wordmark</title><g id="d897cdf4-5a7a-462b-a699-b13d07050f6f" data-name="Calque 2"><g id="f551ecad-7a7b-461d-9a71-73285359a058" data-name="Calque 1"><line x1="9" y1="975.14" x2="9" y2="960.14" fill="none" stroke="#000" stroke-miterlimit="10" stroke-width="18"/><polyline points="9 702.7 9 961.36 9 976.28 9 1194.14" fill="none" stroke="#000" stroke-miterlimit="10" stroke-width="18"/><path d="M9,707.64H86.87a130,130,0,0,1,0,260H9" fill="none" stroke="#000" stroke-miterlimit="10" stroke-width="18"/><path d="M298.33,915.51V837.64a130,130,0,0,1,260,0v130" fill="none" stroke="#000" stroke-miterlimit="10" stroke-width="18"/><path d="M1156.69,968.64v-131a130,130,0,1,1,260,0v130" fill="none" stroke="#000" stroke-miterlimit="10" stroke-width="18"/><path d="M1104.75,967.64a130,130,0,0,1-130-130v-130" fill="none" stroke="#000" stroke-miterlimit="10" stroke-width="18"/><path d="M298.33,216.87V139a130,130,0,0,1,228-85.47c3.5,4,9.11,7.11,12.32,11.4" fill="none" stroke="#000" stroke-miterlimit="10" stroke-width="18"/><line x1="298.33" y1="714.14" x2="298.33" y2="699.14" fill="none" stroke="#000" stroke-miterlimit="10" stroke-width="18"/><polyline points="298.33 112.93 298.33 692.64 298.33 707.64 298.33 967.64" fill="none" stroke="#000" stroke-miterlimit="10" stroke-width="18"/><polyline points="975 112.93 975 692.64 975 707.64 975 845.62" fill="none" stroke="#000" stroke-miterlimit="10" stroke-width="18"/><path d="M515.77,42.85A328.91,328.91,0,0,1,628,290.68c0,182.08-147.61,329.68-329.69,329.68H9" fill="none" stroke="#000" stroke-miterlimit="10" stroke-width="18"/><path d="M974.75,216.87V139a130,130,0,0,1,228-85.47c3.5,4,9.11,7.11,12.32,11.4" fill="none" stroke="#000" stroke-miterlimit="10" stroke-width="18"/><path d="M1192.19,42.85a328.91,328.91,0,0,1,112.25,247.83c0,182.08-147.61,329.68-329.69,329.68-124.76,0-233.33-69.29-289.33-171.5" fill="none" stroke="#000" stroke-miterlimit="10" stroke-width="18"/><path d="M1704.05,739.72A328.91,328.91,0,0,1,1816.3,987.55c0,182.08-147.61,329.68-329.69,329.68-124.76,0-233.33-69.29-289.33-171.5" fill="none" stroke="#000" stroke-miterlimit="10" stroke-width="18"/><path d="M868.22,925.2a131,131,0,1,1-9.44-184.59" fill="none" stroke="#000" stroke-miterlimit="10" stroke-width="18"/><polygon points="907.05 694.37 861.78 743.62 639.31 985.72 907.05 694.37" fill="none" stroke="#000" stroke-miterlimit="10" stroke-width="18"/><circle cx="1617.72" cy="833.65" r="127" fill="none" stroke="#000" stroke-miterlimit="10" stroke-width="18"/></g></g></svg>