<svg xmlns="http://www.w3.org/2000/svg" viewBox="0 0 1817.3 1318.23"><title>phelng-wordmark</title><g id="1199003b-0bef-41b9-89ac-f8c3d41eea60" data-name="Calque 2"><g id="5882cdc7-e65d-412b-b9a5-01608a8b655b" data-name="Calque 1"><line x1="5" y1="971.14" x2="5" y2="956.14" fill="none" stroke="#000" stroke-miterlimit="10" stroke-width="10"/><polyline points="5 698.7 5 957.36 5 972.28 5 1190.14" fill="none" stroke="#000" stroke-miterlimit="10" stroke-width="10"/><path d="M5,703.64H82.87a130,130,0,0,1,0,260H5" fill="none" stroke="#000" stroke-miterlimit="10" stroke-width="10"/><path d="M294.33,911.51V833.64a130,130,0,0,1,260,0v130" fill="none" stroke="#000" stroke-miterlimit="10" stroke-width="10"/><path d="M1152.69,964.64v-131a130,130,0,1,1,260,0v130" fill="none" stroke="#000" stroke-miterlimit="10" stroke-width="10"/><path d="M1100.75,963.64a130,130,0,0,1-130-130v-130" fill="none" stroke="#000" stroke-miterlimit="10" stroke-width="10"/><path d="M294.33,212.87V135a130,130,0,0,1,228-85.47c3.5,4,9.11,7.11,12.32,11.4" fill="none" stroke="#000" stroke-miterlimit="10" stroke-width="10"/><line x1="294.33" y1="710.14" x2="294.33" y2="695.14" fill="none" stroke="#000" stroke-miterlimit="10" stroke-width="10"/><polyline points="294.33 108.93 294.33 688.64 294.33 703.64 294.33 963.64" fill="none" stroke="#000" stroke-miterlimit="10" stroke-width="10"/><polyline points="971 108.93 971 688.64 971 703.64 971 841.62" fill="none" stroke="#000" stroke-miterlimit="10" stroke-width="10"/><path d="M511.77,38.85A328.91,328.91,0,0,1,624,286.68c0,182.08-147.61,329.68-329.69,329.68H5" fill="none" stroke="#000" stroke-miterlimit="10" stroke-width="10"/><path d="M970.75,212.87V135a130,130,0,0,1,228-85.47c3.5,4,9.11,7.11,12.32,11.4" fill="none" stroke="#000" stroke-miterlimit="10" stroke-width="10"/><path d="M1188.19,38.85a328.91,328.91,0,0,1,112.25,247.83c0,182.08-147.61,329.68-329.69,329.68-124.76,0-233.33-69.29-289.33-171.5" fill="none" stroke="#000" stroke-miterlimit="10" stroke-width="10"/><path d="M1700.05,735.72A328.91,328.91,0,0,1,1812.3,983.55c0,182.08-147.61,329.68-329.69,329.68-124.76,0-233.33-69.29-289.33-171.5" fill="none" stroke="#000" stroke-miterlimit="10" stroke-width="10"/><path d="M864.22,921.2a131,131,0,1,1-9.44-184.59" fill="none" stroke="#000" stroke-miterlimit="10" stroke-width="10"/><polygon points="903.05 690.37 857.78 739.62 635.31 981.72 903.05 690.37" fill="none" stroke="#000" stroke-miterlimit="10" stroke-width="10"/><circle cx="1613.72" cy="829.65" r="127" fill="none" stroke="#000" stroke-miterlimit="10" stroke-width="10"/></g></g></svg>